<?xml version="1.0" encoding="utf-8"?>
<!-- Generator: Adobe Illustrator 16.2.1, SVG Export Plug-In . SVG Version: 6.00 Build 0)  -->
<svg version="1.2" baseProfile="tiny" id="Layer_1" xmlns="http://www.w3.org/2000/svg" xmlns:xlink="http://www.w3.org/1999/xlink"
	 x="0px" y="0px" width="612px" height="603.409px" viewBox="0 0 612 603.409" xml:space="preserve">
<path fill-rule="evenodd" d="M306,27.955c-150.782,0-273,122.218-273,273c0,150.77,122.218,273,273,273c150.77,0,273-122.23,273-273
	C579,150.172,456.77,27.955,306,27.955z M455.602,278.103L334.59,401.806c-0.152,0.152-0.178,0.355-0.33,0.508l-9.369,9.547
	c-5.18,5.281-11.959,7.922-18.776,7.871c-6.817,0.051-13.597-2.59-18.776-7.871l-9.369-9.547c-0.152-0.152-0.19-0.355-0.343-0.559
	L156.627,278.103c-10.359-10.537-10.359-27.65,0-38.238l9.331-9.521c10.321-10.588,27.079-10.588,37.4,0l102.756,104.99
	l102.769-104.99c10.309-10.588,27.066-10.588,37.375,0l9.344,9.521C465.961,250.453,465.961,267.566,455.602,278.103z"/>
</svg>
